<svg width="50" height="50" viewBox="0 0 50 50" fill="none" xmlns="http://www.w3.org/2000/svg">
<path d="M42.9365 6.30355C38.3772 2.10118 32.706 0 25.9333 0C18.8137 0 12.7448 2.38678 7.73661 7.17054C2.72845 11.9543 0.219269 17.9009 0.219269 25.0204C0.219269 31.8441 2.60605 37.7091 7.36941 42.6255C12.1532 47.5418 18.5791 50 26.6677 50C31.5432 50 36.327 49.0004 41.0189 46.991C42.5489 46.3382 43.2935 44.5838 42.6713 43.0437C42.0287 41.4525 40.2131 40.7181 38.6322 41.3913C34.5522 43.1457 30.5538 44.0228 26.6575 44.0228C20.4559 44.0228 15.6517 42.1359 12.245 38.3517C8.8484 34.5777 7.14501 30.1408 7.14501 25.051C7.14501 19.5226 8.9708 14.9123 12.6122 11.2097C16.2433 7.51734 20.7211 5.66095 26.0251 5.66095C30.9108 5.66095 35.0418 7.18074 38.4078 10.2203C41.7737 13.2599 43.4567 17.0849 43.4567 21.6952C43.4567 24.847 42.6815 27.4786 41.1413 29.5696C39.6012 31.6707 37.9998 32.7111 36.3372 32.7111C35.4396 32.7111 34.9908 32.2317 34.9908 31.2627C34.9908 30.4774 35.052 29.5594 35.1642 28.4986L37.0614 12.9845H30.5334L30.1152 14.5043C28.4526 13.1477 26.6269 12.4643 24.6481 12.4643C21.5065 12.4643 18.8137 13.7189 16.5799 16.2179C14.336 18.7168 13.2242 21.94 13.2242 25.8772C13.2242 29.7226 14.2136 32.8335 16.2025 35.1897C18.1915 37.5561 20.5783 38.7291 23.3731 38.7291C25.8721 38.7291 28.0038 37.6785 29.7786 35.5875C31.1148 37.5969 33.0834 38.5965 35.6844 38.5965C39.5094 38.5965 42.8141 36.9339 45.5987 33.5985C48.3833 30.2734 49.7807 26.2546 49.7807 21.5524C49.7807 15.5957 47.5061 10.5059 42.9365 6.30355ZM27.9018 29.7736C26.7493 31.3239 25.3723 32.1093 23.7709 32.1093C22.6795 32.1093 21.8023 31.5381 21.1393 30.3958C20.4661 29.2534 20.1295 27.8356 20.1295 26.1322C20.1295 24.031 20.5987 22.3378 21.5371 21.0526C22.4755 19.7674 23.6383 19.1146 25.0255 19.1146C26.2291 19.1146 27.3001 19.594 28.2384 20.563C29.1768 21.532 29.646 22.8172 29.646 24.4288C29.6358 26.4382 29.0544 28.213 27.9018 29.7736Z" fill="#027BCE"/>
</svg>
