<svg width="29" height="50" viewBox="0 0 29 50" fill="none" xmlns="http://www.w3.org/2000/svg">
<path d="M24.6757 0H3.63858C1.62525 0 0 1.63253 0 3.64223V46.3614C0 48.3693 1.62525 50 3.63858 50H24.6757C26.6854 50 28.3143 48.3693 28.3143 46.3614V3.64223C28.3143 1.63253 26.6854 0 24.6757 0ZM8.96618 2.21194H19.3517C19.6141 2.21194 19.8273 2.60367 19.8273 3.08833C19.8273 3.57299 19.6141 3.96655 19.3517 3.96655H8.96618C8.70199 3.96655 8.49246 3.57299 8.49246 3.08833C8.49246 2.60367 8.70199 2.21194 8.96618 2.21194ZM14.159 46.4051C12.8781 46.4051 11.8359 45.363 11.8359 44.0802C11.8359 42.7975 12.8781 41.759 14.159 41.759C15.4362 41.759 16.4784 42.7975 16.4784 44.0802C16.4784 45.363 15.4362 46.4051 14.159 46.4051ZM25.5885 38.4447H2.72757V6.14569H25.5885V38.4447Z" fill="#027BCE"/>
</svg>
