<svg width="50" height="50" viewBox="0 0 50 50" fill="none" xmlns="http://www.w3.org/2000/svg">
<path d="M18.75 3.125C8.39375 3.125 0 10.1219 0 18.75C0 23.725 2.80625 28.1375 7.15937 30.9938L4.6875 35.9375L11.4219 33.0531C12.8656 33.5656 14.3656 33.9875 15.9687 34.1844C15.75 33.2313 15.625 32.2531 15.625 31.25C15.625 22.6344 24.0344 15.625 34.375 15.625C35.3219 15.625 36.2469 15.7031 37.1594 15.8156C35.5094 8.59062 27.9 3.125 18.75 3.125ZM12.5 14.8438C11.2062 14.8438 10.1562 13.7938 10.1562 12.5C10.1562 11.2062 11.2062 10.1562 12.5 10.1562C13.7937 10.1562 14.8437 11.2062 14.8437 12.5C14.8437 13.7938 13.7937 14.8438 12.5 14.8438ZM25 14.8438C23.7062 14.8438 22.6562 13.7938 22.6562 12.5C22.6562 11.2062 23.7062 10.1562 25 10.1562C26.2937 10.1562 27.3437 11.2062 27.3437 12.5C27.3437 13.7938 26.2937 14.8438 25 14.8438Z" fill="#027BCE"/>
<path d="M50 31.25C50 24.3469 43.0031 18.75 34.375 18.75C25.7469 18.75 18.75 24.3469 18.75 31.25C18.75 38.1531 25.7469 43.75 34.375 43.75C35.7937 43.75 37.1438 43.55 38.4531 43.2656L46.875 46.875L43.9625 41.0531C47.6125 38.7656 50 35.2469 50 31.25ZM29.6875 30.4688C28.3937 30.4688 27.3438 29.4188 27.3438 28.125C27.3438 26.8312 28.3937 25.7812 29.6875 25.7812C30.9813 25.7812 32.0312 26.8312 32.0312 28.125C32.0312 29.4188 30.9813 30.4688 29.6875 30.4688ZM39.0625 30.4688C37.7687 30.4688 36.7188 29.4188 36.7188 28.125C36.7188 26.8312 37.7687 25.7812 39.0625 25.7812C40.3563 25.7812 41.4062 26.8312 41.4062 28.125C41.4062 29.4188 40.3563 30.4688 39.0625 30.4688Z" fill="#027BCE"/>
</svg>
